<?xml version="1.0" standalone="no"?>
<!DOCTYPE svg PUBLIC "-//W3C//DTD SVG 20010904//EN"
 "http://www.w3.org/TR/2001/REC-SVG-20010904/DTD/svg10.dtd">
<svg version="1.0" xmlns="http://www.w3.org/2000/svg"
 width="200.000000pt" height="200.000000pt" viewBox="0 0 200.000000 200.000000"
 preserveAspectRatio="xMidYMid meet">

<g transform="translate(0.000000,200.000000) scale(0.100000,-0.100000)"
fill="#000000" stroke="none">
<path d="M0 1000 l0 -1000 1000 0 1000 0 0 1000 0 1000 -1000 0 -1000 0 0
-1000z m820 580 l5 -225 185 0 185 0 5 225 5 225 215 0 215 0 3 -668 2 -667
-214 0 -213 0 -7 52 c-3 29 -6 144 -6 256 l0 202 -190 0 -190 0 0 -118 c0 -66
-3 -180 -7 -255 l-6 -137 -214 0 -213 0 0 670 0 670 218 -2 217 -3 5 -225z
m-360 -1225 c0 -31 3 -35 25 -35 22 0 25 4 25 35 0 34 1 35 40 35 l40 0 0
-115 0 -115 -40 0 -40 0 0 45 c0 41 -2 45 -25 45 -23 0 -25 -4 -25 -45 l0 -45
-40 0 -40 0 0 115 0 115 40 0 c39 0 40 -1 40 -35z m220 -50 c0 -83 1 -85 24
-85 29 0 36 21 36 108 l0 62 35 0 35 0 0 -115 0 -115 -76 0 c-41 0 -84 5 -94
10 -25 14 -40 70 -40 153 l0 67 40 0 40 0 0 -85z m249 33 l31 -53 0 53 0 52
35 0 35 0 0 -115 0 -115 -33 0 c-30 0 -37 5 -63 53 l-29 52 -3 -52 -3 -53 -35
0 -34 0 0 115 0 115 34 0 c31 0 37 -5 65 -52z m311 22 c0 -27 -3 -30 -30 -30
l-30 0 0 -85 0 -85 -35 0 -35 0 0 85 0 85 -30 0 c-27 0 -30 3 -30 30 l0 30 95
0 95 0 0 -30z m180 6 c0 -22 -5 -25 -47 -28 -63 -4 -71 -28 -9 -28 44 0 46 -1
46 -30 0 -29 -2 -30 -45 -30 -33 0 -45 -4 -45 -15 0 -12 13 -15 55 -15 54 0
55 0 55 -30 l0 -30 -90 0 -90 0 0 115 0 115 85 0 c83 0 85 0 85 -24z m194 8
c19 -18 21 -75 4 -92 -8 -8 -8 -15 -1 -24 6 -7 13 -32 16 -55 5 -43 5 -43 -27
-43 -29 0 -33 4 -42 38 -7 27 -15 38 -31 40 -21 3 -23 -1 -23 -37 0 -40 -1
-41 -35 -41 l-35 0 0 115 0 115 79 0 c59 0 84 -4 95 -16z"/>
<path d="M1510 320 c0 -14 7 -20 23 -20 30 0 40 10 26 27 -18 20 -49 16 -49
-7z"/>
</g>
</svg>
